<mxfile host="app.diagrams.net" modified="2021-10-02T15:14:34.950Z" agent="5.0 (Windows NT 10.0; Win64; x64) AppleWebKit/537.36 (KHTML, like Gecko) Chrome/94.0.4606.61 Safari/537.36" etag="EzC52XLwawYpw9nVEZh3" version="15.4.1" type="github">
  <diagram id="C5RBs43oDa-KdzZeNtuy" name="Page-1">
    <mxGraphModel dx="1422" dy="762" grid="1" gridSize="10" guides="1" tooltips="1" connect="1" arrows="1" fold="1" page="1" pageScale="1" pageWidth="1169" pageHeight="1654" math="0" shadow="0">
      <root>
        <mxCell id="WIyWlLk6GJQsqaUBKTNV-0" />
        <mxCell id="WIyWlLk6GJQsqaUBKTNV-1" parent="WIyWlLk6GJQsqaUBKTNV-0" />
        <mxCell id="tONLI_ZuEYyBSYmbDMfp-8" value="" style="edgeStyle=orthogonalEdgeStyle;rounded=0;orthogonalLoop=1;jettySize=auto;html=1;fontFamily=Times New Roman;fontSize=20;" edge="1" parent="WIyWlLk6GJQsqaUBKTNV-1" source="tONLI_ZuEYyBSYmbDMfp-5" target="tONLI_ZuEYyBSYmbDMfp-7">
          <mxGeometry relative="1" as="geometry" />
        </mxCell>
        <mxCell id="tONLI_ZuEYyBSYmbDMfp-5" value="&lt;p&gt;&lt;font style=&quot;font-size: 20px&quot;&gt;Начало&lt;/font&gt;&lt;/p&gt;" style="ellipse;whiteSpace=wrap;html=1;rounded=1;fontFamily=Times New Roman;fontSize=15;labelBackgroundColor=none;horizontal=1;" vertex="1" parent="WIyWlLk6GJQsqaUBKTNV-1">
          <mxGeometry x="507" y="30" width="155" height="70" as="geometry" />
        </mxCell>
        <mxCell id="tONLI_ZuEYyBSYmbDMfp-22" value="" style="edgeStyle=orthogonalEdgeStyle;rounded=0;orthogonalLoop=1;jettySize=auto;html=1;fontFamily=Times New Roman;fontSize=20;" edge="1" parent="WIyWlLk6GJQsqaUBKTNV-1" source="tONLI_ZuEYyBSYmbDMfp-7" target="tONLI_ZuEYyBSYmbDMfp-21">
          <mxGeometry relative="1" as="geometry" />
        </mxCell>
        <mxCell id="tONLI_ZuEYyBSYmbDMfp-7" value="Загрузка файла" style="shape=parallelogram;perimeter=parallelogramPerimeter;whiteSpace=wrap;html=1;fixedSize=1;rounded=1;fontSize=15;fontFamily=Times New Roman;" vertex="1" parent="WIyWlLk6GJQsqaUBKTNV-1">
          <mxGeometry x="504" y="120" width="162" height="60" as="geometry" />
        </mxCell>
        <mxCell id="tONLI_ZuEYyBSYmbDMfp-50" value="" style="edgeStyle=orthogonalEdgeStyle;rounded=0;orthogonalLoop=1;jettySize=auto;html=1;fontFamily=Times New Roman;fontSize=15;" edge="1" parent="WIyWlLk6GJQsqaUBKTNV-1" source="tONLI_ZuEYyBSYmbDMfp-21" target="tONLI_ZuEYyBSYmbDMfp-56">
          <mxGeometry relative="1" as="geometry">
            <mxPoint x="585" y="310" as="targetPoint" />
          </mxGeometry>
        </mxCell>
        <mxCell id="tONLI_ZuEYyBSYmbDMfp-21" value="Ввод&lt;br style=&quot;font-size: 15px;&quot;&gt;data(m1,m2), N, P" style="whiteSpace=wrap;html=1;rounded=1;fontSize=15;fontFamily=Times New Roman;" vertex="1" parent="WIyWlLk6GJQsqaUBKTNV-1">
          <mxGeometry x="510" y="210" width="150" height="60" as="geometry" />
        </mxCell>
        <mxCell id="tONLI_ZuEYyBSYmbDMfp-58" value="" style="edgeStyle=orthogonalEdgeStyle;rounded=0;orthogonalLoop=1;jettySize=auto;html=1;fontFamily=Times New Roman;fontSize=15;" edge="1" parent="WIyWlLk6GJQsqaUBKTNV-1" source="tONLI_ZuEYyBSYmbDMfp-56" target="tONLI_ZuEYyBSYmbDMfp-57">
          <mxGeometry relative="1" as="geometry" />
        </mxCell>
        <mxCell id="tONLI_ZuEYyBSYmbDMfp-56" value="Отбор строк по N" style="rounded=1;whiteSpace=wrap;html=1;shadow=0;sketch=0;fontFamily=Times New Roman;fontSize=15;verticalAlign=middle;" vertex="1" parent="WIyWlLk6GJQsqaUBKTNV-1">
          <mxGeometry x="510" y="300" width="150" height="60" as="geometry" />
        </mxCell>
        <mxCell id="tONLI_ZuEYyBSYmbDMfp-60" value="" style="edgeStyle=orthogonalEdgeStyle;rounded=0;orthogonalLoop=1;jettySize=auto;html=1;fontFamily=Times New Roman;fontSize=15;" edge="1" parent="WIyWlLk6GJQsqaUBKTNV-1" source="tONLI_ZuEYyBSYmbDMfp-57" target="tONLI_ZuEYyBSYmbDMfp-59">
          <mxGeometry relative="1" as="geometry" />
        </mxCell>
        <mxCell id="tONLI_ZuEYyBSYmbDMfp-57" value="Разбить отобранные строки на слова" style="rounded=1;whiteSpace=wrap;html=1;shadow=0;fontFamily=Times New Roman;fontSize=15;sketch=0;" vertex="1" parent="WIyWlLk6GJQsqaUBKTNV-1">
          <mxGeometry x="510" y="400" width="150" height="60" as="geometry" />
        </mxCell>
        <mxCell id="tONLI_ZuEYyBSYmbDMfp-62" value="" style="edgeStyle=orthogonalEdgeStyle;rounded=0;orthogonalLoop=1;jettySize=auto;html=1;fontFamily=Times New Roman;fontSize=15;" edge="1" parent="WIyWlLk6GJQsqaUBKTNV-1" source="tONLI_ZuEYyBSYmbDMfp-59" target="tONLI_ZuEYyBSYmbDMfp-61">
          <mxGeometry relative="1" as="geometry" />
        </mxCell>
        <mxCell id="tONLI_ZuEYyBSYmbDMfp-59" value="Удалить у слов знаки препинания" style="whiteSpace=wrap;html=1;rounded=1;shadow=0;fontFamily=Times New Roman;fontSize=15;sketch=0;" vertex="1" parent="WIyWlLk6GJQsqaUBKTNV-1">
          <mxGeometry x="510" y="510" width="150" height="60" as="geometry" />
        </mxCell>
        <mxCell id="tONLI_ZuEYyBSYmbDMfp-64" value="" style="edgeStyle=orthogonalEdgeStyle;rounded=0;orthogonalLoop=1;jettySize=auto;html=1;fontFamily=Times New Roman;fontSize=15;" edge="1" parent="WIyWlLk6GJQsqaUBKTNV-1" source="tONLI_ZuEYyBSYmbDMfp-61" target="tONLI_ZuEYyBSYmbDMfp-63">
          <mxGeometry relative="1" as="geometry" />
        </mxCell>
        <mxCell id="tONLI_ZuEYyBSYmbDMfp-61" value="Убрать служебные слова" style="rounded=1;whiteSpace=wrap;html=1;shadow=0;fontFamily=Times New Roman;fontSize=15;sketch=0;" vertex="1" parent="WIyWlLk6GJQsqaUBKTNV-1">
          <mxGeometry x="510" y="620" width="150" height="60" as="geometry" />
        </mxCell>
        <mxCell id="tONLI_ZuEYyBSYmbDMfp-66" value="" style="edgeStyle=orthogonalEdgeStyle;rounded=0;orthogonalLoop=1;jettySize=auto;html=1;fontFamily=Times New Roman;fontSize=15;" edge="1" parent="WIyWlLk6GJQsqaUBKTNV-1" source="tONLI_ZuEYyBSYmbDMfp-63" target="tONLI_ZuEYyBSYmbDMfp-65">
          <mxGeometry relative="1" as="geometry" />
        </mxCell>
        <mxCell id="tONLI_ZuEYyBSYmbDMfp-63" value="Отбросить окончание у каждого слова" style="rounded=1;whiteSpace=wrap;html=1;shadow=0;fontFamily=Times New Roman;fontSize=15;sketch=0;" vertex="1" parent="WIyWlLk6GJQsqaUBKTNV-1">
          <mxGeometry x="510" y="730" width="150" height="60" as="geometry" />
        </mxCell>
        <mxCell id="tONLI_ZuEYyBSYmbDMfp-107" value="" style="edgeStyle=orthogonalEdgeStyle;rounded=0;orthogonalLoop=1;jettySize=auto;html=1;fontFamily=Times New Roman;fontSize=20;" edge="1" parent="WIyWlLk6GJQsqaUBKTNV-1" source="tONLI_ZuEYyBSYmbDMfp-65">
          <mxGeometry relative="1" as="geometry">
            <mxPoint x="585" y="920" as="targetPoint" />
          </mxGeometry>
        </mxCell>
        <mxCell id="tONLI_ZuEYyBSYmbDMfp-65" value="Убрать повторяющиеся значения внутри строк" style="rounded=1;whiteSpace=wrap;html=1;shadow=0;fontFamily=Times New Roman;fontSize=15;sketch=0;" vertex="1" parent="WIyWlLk6GJQsqaUBKTNV-1">
          <mxGeometry x="510" y="840" width="150" height="60" as="geometry" />
        </mxCell>
        <mxCell id="tONLI_ZuEYyBSYmbDMfp-101" value="" style="edgeStyle=orthogonalEdgeStyle;rounded=0;orthogonalLoop=1;jettySize=auto;html=1;fontFamily=Times New Roman;fontSize=20;entryX=0.5;entryY=0;entryDx=0;entryDy=0;" edge="1" parent="WIyWlLk6GJQsqaUBKTNV-1" target="tONLI_ZuEYyBSYmbDMfp-85">
          <mxGeometry relative="1" as="geometry">
            <mxPoint x="585" y="1120" as="sourcePoint" />
            <mxPoint x="585" y="1040" as="targetPoint" />
          </mxGeometry>
        </mxCell>
        <mxCell id="tONLI_ZuEYyBSYmbDMfp-109" value="" style="edgeStyle=orthogonalEdgeStyle;rounded=0;orthogonalLoop=1;jettySize=auto;html=1;fontFamily=Times New Roman;fontSize=15;" edge="1" parent="WIyWlLk6GJQsqaUBKTNV-1" source="tONLI_ZuEYyBSYmbDMfp-82" target="tONLI_ZuEYyBSYmbDMfp-108">
          <mxGeometry relative="1" as="geometry" />
        </mxCell>
        <mxCell id="tONLI_ZuEYyBSYmbDMfp-82" value="P0 = кол-во слов * P" style="whiteSpace=wrap;html=1;rounded=1;shadow=0;fontFamily=Times New Roman;fontSize=15;sketch=0;" vertex="1" parent="WIyWlLk6GJQsqaUBKTNV-1">
          <mxGeometry x="510" y="920" width="150" height="60" as="geometry" />
        </mxCell>
        <mxCell id="tONLI_ZuEYyBSYmbDMfp-92" value="" style="edgeStyle=orthogonalEdgeStyle;rounded=0;orthogonalLoop=1;jettySize=auto;html=1;fontFamily=Times New Roman;fontSize=20;" edge="1" parent="WIyWlLk6GJQsqaUBKTNV-1" source="tONLI_ZuEYyBSYmbDMfp-85" target="tONLI_ZuEYyBSYmbDMfp-91">
          <mxGeometry relative="1" as="geometry" />
        </mxCell>
        <mxCell id="tONLI_ZuEYyBSYmbDMfp-85" value="count = количество совпадений словосонов в строках" style="whiteSpace=wrap;html=1;rounded=1;shadow=0;fontFamily=Times New Roman;fontSize=15;sketch=0;" vertex="1" parent="WIyWlLk6GJQsqaUBKTNV-1">
          <mxGeometry x="510" y="1160" width="150" height="60" as="geometry" />
        </mxCell>
        <mxCell id="tONLI_ZuEYyBSYmbDMfp-96" value="" style="edgeStyle=orthogonalEdgeStyle;rounded=0;orthogonalLoop=1;jettySize=auto;html=1;fontFamily=Times New Roman;fontSize=20;" edge="1" parent="WIyWlLk6GJQsqaUBKTNV-1" source="tONLI_ZuEYyBSYmbDMfp-91" target="tONLI_ZuEYyBSYmbDMfp-95">
          <mxGeometry relative="1" as="geometry" />
        </mxCell>
        <mxCell id="tONLI_ZuEYyBSYmbDMfp-91" value="Если count = P0&amp;nbsp;" style="rhombus;whiteSpace=wrap;html=1;rounded=1;shadow=0;fontFamily=Times New Roman;fontSize=15;sketch=0;" vertex="1" parent="WIyWlLk6GJQsqaUBKTNV-1">
          <mxGeometry x="510" y="1260" width="150" height="80" as="geometry" />
        </mxCell>
        <mxCell id="tONLI_ZuEYyBSYmbDMfp-111" value="" style="edgeStyle=orthogonalEdgeStyle;rounded=0;orthogonalLoop=1;jettySize=auto;html=1;fontFamily=Times New Roman;fontSize=15;" edge="1" parent="WIyWlLk6GJQsqaUBKTNV-1" source="tONLI_ZuEYyBSYmbDMfp-95" target="tONLI_ZuEYyBSYmbDMfp-110">
          <mxGeometry relative="1" as="geometry" />
        </mxCell>
        <mxCell id="tONLI_ZuEYyBSYmbDMfp-95" value="Занесём в массив" style="whiteSpace=wrap;html=1;rounded=1;shadow=0;fontFamily=Times New Roman;fontSize=15;sketch=0;" vertex="1" parent="WIyWlLk6GJQsqaUBKTNV-1">
          <mxGeometry x="505" y="1380" width="160" height="60" as="geometry" />
        </mxCell>
        <mxCell id="tONLI_ZuEYyBSYmbDMfp-108" value="&lt;font style=&quot;font-size: 15px&quot;&gt;Если строка ещё не посчитана&lt;/font&gt;" style="rhombus;whiteSpace=wrap;html=1;shadow=0;labelBackgroundColor=none;sketch=0;fontFamily=Times New Roman;fontSize=20;verticalAlign=middle;" vertex="1" parent="WIyWlLk6GJQsqaUBKTNV-1">
          <mxGeometry x="510" y="1010" width="150" height="110" as="geometry" />
        </mxCell>
        <mxCell id="tONLI_ZuEYyBSYmbDMfp-110" value="Сохраним в один файл" style="whiteSpace=wrap;html=1;rounded=1;shadow=0;fontFamily=Times New Roman;fontSize=15;sketch=0;" vertex="1" parent="WIyWlLk6GJQsqaUBKTNV-1">
          <mxGeometry x="380" y="1480" width="150" height="60" as="geometry" />
        </mxCell>
        <mxCell id="tONLI_ZuEYyBSYmbDMfp-112" value="" style="endArrow=classic;html=1;rounded=0;fontFamily=Times New Roman;fontSize=15;edgeStyle=orthogonalEdgeStyle;exitX=0.5;exitY=1;exitDx=0;exitDy=0;entryX=0.5;entryY=0;entryDx=0;entryDy=0;" edge="1" parent="WIyWlLk6GJQsqaUBKTNV-1" source="tONLI_ZuEYyBSYmbDMfp-95" target="tONLI_ZuEYyBSYmbDMfp-113">
          <mxGeometry width="50" height="50" relative="1" as="geometry">
            <mxPoint x="660" y="1470" as="sourcePoint" />
            <mxPoint x="710" y="1480" as="targetPoint" />
          </mxGeometry>
        </mxCell>
        <mxCell id="tONLI_ZuEYyBSYmbDMfp-113" value="Сохраним в разные файлы" style="whiteSpace=wrap;html=1;rounded=1;shadow=0;fontFamily=Times New Roman;fontSize=15;sketch=0;" vertex="1" parent="WIyWlLk6GJQsqaUBKTNV-1">
          <mxGeometry x="650" y="1480" width="150" height="60" as="geometry" />
        </mxCell>
      </root>
    </mxGraphModel>
  </diagram>
</mxfile>
